HIERARCHY
ROOT Haolin_28_06:Solving:Hips
{
	OFFSET 0.000000 0.000000 0.000000
	CHANNELS 6 Xposition Yposition Zposition Xrotation Yrotation Zrotation
	JOINT Haolin_28_06:Solving:Spine
	{
		OFFSET 0.000000 -12.181966 2.015561
		CHANNELS 6 Xposition Yposition Zposition Xrotation Yrotation Zrotation
		JOINT Haolin_28_06:Solving:Spine1
		{
			OFFSET 0.000000 -8.890296 1.567602
			CHANNELS 6 Xposition Yposition Zposition Xrotation Yrotation Zrotation
			JOINT Haolin_28_06:Solving:Spine2
			{
				OFFSET 0.000000 -8.993092 0.786796
				CHANNELS 6 Xposition Yposition Zposition Xrotation Yrotation Zrotation
				JOINT Haolin_28_06:Solving:Spine3
				{
					OFFSET 0.000000 -9.027443 0.000000
					CHANNELS 6 Xposition Yposition Zposition Xrotation Yrotation Zrotation
					JOINT Haolin_28_06:Solving:Neck
					{
						OFFSET 0.000000 -11.606712 -1.160669
						CHANNELS 6 Xposition Yposition Zposition Xrotation Yrotation Zrotation
						JOINT Haolin_28_06:Solving:Neck1
						{
							OFFSET 0.000000 -7.471592 -0.653680
							CHANNELS 6 Xposition Yposition Zposition Xrotation Yrotation Zrotation
							JOINT Haolin_28_06:Solving:Head
							{
								OFFSET 0.000000 -7.386181 -1.302382
								CHANNELS 6 Xposition Yposition Zposition Xrotation Yrotation Zrotation
								JOINT Haolin_28_06:Solving:HeadEnd
								{
									OFFSET 0.000000 -9.728081 0.000002
									CHANNELS 6 Xposition Yposition Zposition Xrotation Yrotation Zrotation
									End Site
									{
										OFFSET 0.000000 -9.728081 0.000002
									}
								}
							}
						}
					}
					JOINT Haolin_28_06:Solving:RightShoulder
					{
						OFFSET 0.000000 -8.290508 -5.270916
						CHANNELS 6 Xposition Yposition Zposition Xrotation Yrotation Zrotation
						JOINT Haolin_28_06:Solving:RightArm
						{
							OFFSET -19.261074 -0.000008 0.000000
							CHANNELS 6 Xposition Yposition Zposition Xrotation Yrotation Zrotation
							JOINT Haolin_28_06:Solving:RightForeArm
							{
								OFFSET -30.691700 -0.000011 0.000000
								CHANNELS 6 Xposition Yposition Zposition Xrotation Yrotation Zrotation
								JOINT Haolin_28_06:Solving:RightHand
								{
									OFFSET -20.216934 -0.000008 0.000000
									CHANNELS 6 Xposition Yposition Zposition Xrotation Yrotation Zrotation
									JOINT Haolin_28_06:Solving:RightHandThumb1
									{
										OFFSET -4.948814 2.881329 -3.679893
										CHANNELS 6 Xposition Yposition Zposition Xrotation Yrotation Zrotation
										End Site
										{
											OFFSET -7.039886 -0.000004 -7.104978
										}
									}
									JOINT Haolin_28_06:Solving:RightHandMiddle1
									{
										OFFSET -13.196846 -0.000004 0.084595
										CHANNELS 6 Xposition Yposition Zposition Xrotation Yrotation Zrotation
										End Site
										{
											OFFSET -10.002037 -0.000004 0.000000
										}
									}
								}
							}
						}
					}
					JOINT Haolin_28_06:Solving:LeftShoulder
					{
						OFFSET 0.000000 -8.290508 -5.270916
						CHANNELS 6 Xposition Yposition Zposition Xrotation Yrotation Zrotation
						JOINT Haolin_28_06:Solving:LeftArm
						{
							OFFSET 19.261074 -0.000008 0.000000
							CHANNELS 6 Xposition Yposition Zposition Xrotation Yrotation Zrotation
							JOINT Haolin_28_06:Solving:LeftForeArm
							{
								OFFSET 30.691700 -0.000011 0.000000
								CHANNELS 6 Xposition Yposition Zposition Xrotation Yrotation Zrotation
								JOINT Haolin_28_06:Solving:LeftHand
								{
									OFFSET 20.216934 -0.000008 0.000000
									CHANNELS 6 Xposition Yposition Zposition Xrotation Yrotation Zrotation
									JOINT Haolin_28_06:Solving:LeftHandThumb1
									{
										OFFSET 4.948814 2.881329 -3.679893
										CHANNELS 6 Xposition Yposition Zposition Xrotation Yrotation Zrotation
										End Site
										{
											OFFSET 7.039886 -0.000004 -7.104978
										}
									}
									JOINT Haolin_28_06:Solving:LeftHandMiddle1
									{
										OFFSET 13.196846 -0.000004 0.084595
										CHANNELS 6 Xposition Yposition Zposition Xrotation Yrotation Zrotation
										End Site
										{
											OFFSET 10.002037 -0.000004 0.000000
										}
									}
								}
							}
						}
					}
				}
			}
		}
	}
	JOINT Haolin_28_06:Solving:RightUpLeg
	{
		OFFSET -10.083070 0.000000 0.000000
		CHANNELS 6 Xposition Yposition Zposition Xrotation Yrotation Zrotation
		JOINT Haolin_28_06:Solving:RightLeg
		{
			OFFSET 0.000000 47.042522 -0.000008
			CHANNELS 6 Xposition Yposition Zposition Xrotation Yrotation Zrotation
			JOINT Haolin_28_06:Solving:RightFoot
			{
				OFFSET 0.000000 38.766415 -0.000006
				CHANNELS 6 Xposition Yposition Zposition Xrotation Yrotation Zrotation
				JOINT Haolin_28_06:Solving:RightForeFoot
				{
					OFFSET 0.000000 3.531212 -0.000000
					CHANNELS 6 Xposition Yposition Zposition Xrotation Yrotation Zrotation
					JOINT Haolin_28_06:Solving:RightToeBase
					{
						OFFSET 0.000000 0.000000 -13.829352
						CHANNELS 6 Xposition Yposition Zposition Xrotation Yrotation Zrotation
						JOINT Haolin_28_06:Solving:RightToeBaseEnd
						{
							OFFSET 0.000000 0.000000 -4.034167
							CHANNELS 6 Xposition Yposition Zposition Xrotation Yrotation Zrotation
							End Site
							{
								OFFSET 0.000000 -4.034164 0.000004
							}
						}
					}
				}
			}
		}
	}
	JOINT Haolin_28_06:Solving:LeftUpLeg
	{
		OFFSET 10.083070 0.000000 0.000000
		CHANNELS 6 Xposition Yposition Zposition Xrotation Yrotation Zrotation
		JOINT Haolin_28_06:Solving:LeftLeg
		{
			OFFSET 0.000000 47.042522 -0.000008
			CHANNELS 6 Xposition Yposition Zposition Xrotation Yrotation Zrotation
			JOINT Haolin_28_06:Solving:LeftFoot
			{
				OFFSET 0.000000 38.766415 -0.000006
				CHANNELS 6 Xposition Yposition Zposition Xrotation Yrotation Zrotation
				JOINT Haolin_28_06:Solving:LeftForeFoot
				{
					OFFSET 0.000000 3.531212 -0.000000
					CHANNELS 6 Xposition Yposition Zposition Xrotation Yrotation Zrotation
					JOINT Haolin_28_06:Solving:LeftToeBase
					{
						OFFSET 0.000000 0.000000 -13.829352
						CHANNELS 6 Xposition Yposition Zposition Xrotation Yrotation Zrotation
						JOINT Haolin_28_06:Solving:LeftToeBaseEnd
						{
							OFFSET 0.000000 0.000000 -4.855067
							CHANNELS 6 Xposition Yposition Zposition Xrotation Yrotation Zrotation
							End Site
							{
								OFFSET 0.000000 -4.855064 0.000004
							}
						}
					}
				}
			}
		}
	}
}
MOTION
Frames: 4
Frame Time: 0.041667
0.981936 37.974476 -93.749001 72.841181 1.811634 1.678740 0.000000 -12.181977 2.015550 14.197979 -0.090860 -2.393319 -0.000000 -8.890315 1.567603 0.454282 -0.088297 -0.498826 -0.000000 -8.993103 0.786797 0.834158 -3.754292 1.281915 0.000000 -9.027473 -0.000001 1.925719 -1.982654 4.404987 0.000004 -11.606696 -1.160659 -7.207853 7.113520 -2.555887 -0.000001 -7.471625 -0.653692 -2.370450 9.174898 -5.708077 0.000009 -7.386204 -1.302386 1.643778 2.037537 -8.118776 0.000003 -9.728081 0.000012 0.000002 0.000000 0.000001 0.000003 -8.290482 -5.270910 -0.000013 17.934794 9.952240 -19.261076 0.000008 -0.000003 -4.715730 -29.858097 -68.973723 -30.691708 -0.000016 0.000002 -20.560915 -12.195365 -4.530508 -20.216928 -0.000005 -0.000007 0.700782 -11.185979 3.607754 -4.948796 2.881312 -3.679864 -0.000002 -0.000000 0.000004 -13.196844 -0.000020 0.084621 -0.000005 -0.000004 0.000002 0.000002 -8.290497 -5.270909 -0.000011 -11.876786 -10.510266 19.261086 -0.000046 -0.000001 -18.865276 14.084098 60.326000 30.691708 -0.000008 -0.000013 -3.819226 17.185693 1.129996 20.216923 -0.000020 0.000002 0.014630 0.146941 -5.688436 4.948808 2.881325 -3.679884 0.000002 -0.000002 0.000001 13.196860 -0.000014 0.084598 0.000003 -0.000001 0.000009 -10.083072 -0.000016 -0.000008 25.728793 12.132222 -1.401934 0.000002 47.042538 -0.000011 -2.980714 0.000003 0.000000 0.000001 38.766430 0.000002 3.129425 15.473027 -10.716650 0.000000 3.531212 0.000002 -0.000001 0.000004 -0.000002 0.000004 0.000013 -13.829352 -7.743837 -0.000004 0.000000 0.000002 -0.000008 -4.034162 -0.000000 -0.000002 0.000000 10.083074 -0.000003 -0.000010 22.402635 -13.488944 -6.078718 -0.000001 47.042526 -0.000003 3.807004 -0.000001 -0.000001 -0.000003 38.766434 -0.000017 0.041468 -10.712873 15.400936 0.000000 3.531197 -0.000001 0.000001 -0.000001 0.000001 0.000001 0.000008 -13.829355 3.253840 -0.000000 0.000001 0.000001 -0.000008 -4.855067 0.000001 0.000000 -0.000000 
1.001202 37.980740 -93.744049 72.854698 1.872934 1.690850 -0.000000 -12.181973 2.015573 14.200851 -0.085309 -2.414735 0.000000 -8.890322 1.567595 0.461289 -0.084614 -0.504035 0.000000 -8.993107 0.786793 0.863608 -3.682012 1.276478 -0.000000 -9.027445 -0.000005 1.919251 -1.961979 4.366397 0.000000 -11.606713 -1.160651 -7.399969 7.177150 -2.637126 -0.000000 -7.471567 -0.653678 -2.416864 9.137851 -5.654974 0.000001 -7.386188 -1.302391 1.594849 2.035675 -8.096706 0.000004 -9.728104 -0.000012 0.000000 0.000000 0.000000 -0.000001 -8.290493 -5.270900 -0.000011 17.853372 9.676113 -19.261068 0.000004 -0.000000 -4.580467 -30.954229 -70.212794 -30.691696 -0.000037 0.000007 -20.551641 -11.980874 -4.450149 -20.216927 -0.000001 0.000022 0.643344 -11.130278 3.329060 -4.948807 2.881298 -3.679908 0.000002 -0.000005 -0.000001 -13.196854 -0.000033 0.084569 0.000001 -0.000001 -0.000000 -0.000001 -8.290493 -5.270900 -0.000008 -11.649759 -10.108416 19.261080 -0.000032 -0.000007 -17.773383 14.478321 61.611797 30.691679 -0.000033 -0.000002 -4.432014 17.100693 1.305621 20.216928 -0.000002 0.000008 0.028217 0.264203 -6.096370 4.948810 2.881327 -3.679900 -0.000005 0.000007 -0.000005 13.196847 -0.000007 0.084588 0.000004 0.000000 0.000002 -10.083073 -0.000004 0.000011 25.707686 12.062274 -1.377063 -0.000001 47.042538 -0.000004 -2.988100 0.000000 -0.000000 0.000003 38.766422 -0.000006 3.114885 15.508812 -10.751431 -0.000000 3.531219 -0.000003 -0.000001 -0.000001 -0.000002 0.000002 0.000006 -13.829355 -7.714361 -0.000000 -0.000002 0.000001 -0.000007 -4.034175 0.000001 -0.000004 0.000000 10.083071 -0.000014 0.000008 22.432296 -13.507565 -6.047736 -0.000001 47.042526 -0.000000 3.760638 0.000001 0.000000 -0.000002 38.766426 -0.000001 0.031067 -10.757108 15.419980 0.000000 3.531212 -0.000003 0.000001 -0.000001 0.000001 -0.000000 0.000007 -13.829356 3.281730 0.000002 -0.000001 -0.000002 0.000007 -4.855070 -0.000000 -0.000002 0.000000 
1.018860 37.984398 -93.737267 72.883098 1.948136 1.709678 0.000000 -12.181974 2.015563 14.196727 -0.082436 -2.439266 0.000000 -8.890282 1.567596 0.462689 -0.080294 -0.508721 0.000000 -8.993095 0.786796 0.886822 -3.607317 1.269261 -0.000001 -9.027427 -0.000000 1.912673 -1.934375 4.322139 -0.000002 -11.606682 -1.160661 -7.608433 7.209230 -2.676523 -0.000001 -7.471615 -0.653675 -2.443930 9.108707 -5.635725 0.000000 -7.386155 -1.302383 1.569605 2.030473 -8.073489 0.000002 -9.728073 -0.000004 0.000002 0.000000 0.000000 -0.000002 -8.290474 -5.270910 -0.000010 17.751655 9.396898 -19.261070 -0.000016 0.000003 -4.523863 -32.004634 -71.501432 -30.691717 -0.000027 -0.000004 -20.487099 -11.750440 -4.351199 -20.216940 -0.000030 0.000006 0.589043 -11.064079 3.066583 -4.948784 2.881318 -3.679890 -0.000006 -0.000005 0.000009 -13.196820 -0.000001 0.084597 -0.000003 -0.000007 0.000003 -0.000003 -8.290470 -5.270910 -0.000007 -11.416524 -9.688277 19.261082 -0.000030 0.000000 -16.624609 14.948649 62.902921 30.691692 -0.000005 -0.000007 -5.018393 17.056319 1.475414 20.216948 0.000004 0.000000 0.043709 0.384297 -6.488811 4.948809 2.881306 -3.679890 0.000002 -0.000012 -0.000008 13.196845 -0.000025 0.084581 0.000001 -0.000005 -0.000001 -10.083069 0.000007 0.000007 25.672507 12.022135 -1.354654 -0.000001 47.042526 -0.000006 -2.999783 0.000000 0.000000 0.000006 38.766403 -0.000006 3.096068 15.488929 -10.775266 -0.000001 3.531204 0.000003 -0.000001 -0.000000 0.000000 0.000004 0.000010 -13.829358 -7.682988 -0.000001 -0.000000 -0.000000 -0.000008 -4.034176 -0.000001 0.000001 -0.000001 10.083068 -0.000017 0.000003 22.442545 -13.545684 -6.021462 0.000001 47.042538 0.000004 3.721686 0.000001 0.000000 -0.000000 38.766411 -0.000002 0.017332 -10.797592 15.458584 0.000003 3.531219 -0.000005 0.000000 -0.000003 0.000001 -0.000002 0.000001 -13.829354 3.287467 0.000003 -0.000001 -0.000001 0.000007 -4.855072 0.000001 0.000005 -0.000002 
1.036047 37.988403 -93.728333 72.918205 2.040152 1.729601 0.000000 -12.181967 2.015558 14.181881 -0.080397 -2.460943 0.000000 -8.890274 1.567594 0.460221 -0.075640 -0.516957 0.000001 -8.993124 0.786793 0.919500 -3.540875 1.259734 -0.000000 -9.027420 0.000002 1.910813 -1.909538 4.281893 -0.000002 -11.606726 -1.160671 -7.813168 7.232238 -2.711860 -0.000000 -7.471604 -0.653678 -2.500012 9.072745 -5.587640 -0.000006 -7.386187 -1.302379 1.571072 2.027849 -8.063622 0.000003 -9.728065 0.000003 -0.000002 -0.000001 0.000001 -0.000003 -8.290546 -5.270921 -0.000011 17.618692 9.127125 -19.261074 -0.000015 0.000001 -4.711920 -32.641395 -72.962738 -30.691694 -0.000005 -0.000003 -19.976266 -11.416850 -4.115532 -20.216938 -0.000015 0.000001 0.510254 -11.082294 2.652694 -4.948806 2.881310 -3.679882 -0.000005 -0.000005 0.000000 -13.196833 -0.000020 0.084604 -0.000001 -0.000007 -0.000002 -0.000004 -8.290543 -5.270920 -0.000008 -11.205800 -9.267227 19.261082 -0.000024 0.000000 -15.612984 15.380152 64.291095 30.691687 -0.000013 -0.000006 -5.421367 16.907223 1.580978 20.216928 -0.000009 0.000004 0.068781 0.576181 -6.807883 4.948818 2.881292 -3.679874 0.000000 -0.000003 0.000004 13.196854 -0.000039 0.084593 0.000000 -0.000004 -0.000000 -10.083071 0.000011 -0.000009 25.637240 12.009902 -1.329632 0.000001 47.042526 -0.000005 -3.028587 -0.000003 0.000000 0.000004 38.766434 -0.000008 3.073297 15.433852 -10.819155 -0.000003 3.531204 -0.000006 -0.000000 0.000002 -0.000002 0.000006 0.000003 -13.829360 -7.614223 -0.000002 0.000000 -0.000006 -0.000007 -4.034163 -0.000000 0.000002 -0.000001 10.083071 0.000008 -0.000009 22.452579 -13.575629 -5.988741 -0.000001 47.042538 -0.000005 3.680022 0.000000 0.000001 -0.000005 38.766415 -0.000016 -0.006775 -10.856966 15.487741 0.000000 3.531204 -0.000003 0.000001 -0.000000 -0.000000 -0.000001 0.000011 -13.829357 3.310081 0.000005 -0.000000 0.000001 -0.000000 -4.855081 0.000001 0.000001 -0.000001 
